<?xml version="1.0" standalone="no"?>
<!DOCTYPE svg PUBLIC "-//W3C//DTD SVG 20010904//EN"
 "http://www.w3.org/TR/2001/REC-SVG-20010904/DTD/svg10.dtd">
<svg version="1.0" xmlns="http://www.w3.org/2000/svg"
 width="225.000000pt" height="225.000000pt" viewBox="0 0 225.000000 225.000000"
 preserveAspectRatio="xMidYMid meet">

<g transform="translate(0.000000,225.000000) scale(0.100000,-0.100000)"
fill="#E3288D" stroke="none">
<path d="M1078 2142 c-7 -8 -22 -11 -39 -7 -15 3 -30 1 -34 -4 -9 -15 -45 -14
-45 1 0 9 -3 9 -12 0 -10 -10 -10 -17 0 -33 10 -15 10 -24 2 -34 -6 -7 -10
-26 -8 -42 1 -16 -2 -34 -6 -41 -8 -13 -51 -34 -71 -36 -6 -1 -10 -38 -10 -91
0 -83 -2 -94 -30 -137 -34 -53 -50 -59 -67 -23 -9 21 -7 32 15 74 34 62 34 76
-3 131 -38 57 -38 80 2 138 31 46 31 47 4 22 -60 -54 -69 -113 -26 -167 27
-35 25 -56 -11 -120 l-32 -55 24 -46 c44 -84 50 -92 75 -109 23 -15 28 -15 61
1 35 17 37 16 62 -2 54 -40 68 -43 105 -28 28 12 37 23 51 68 22 66 31 78 60
78 36 0 39 -28 6 -61 -16 -16 -25 -29 -20 -29 12 0 59 49 59 62 0 5 -5 18 -10
29 -24 44 -90 3 -109 -68 -7 -27 -19 -44 -36 -51 -36 -17 -38 -16 -87 24 -51
43 -59 57 -25 49 14 -4 28 -2 31 4 4 5 13 8 20 5 7 -3 19 2 26 11 17 20 30 19
31 -2 0 -12 5 -9 13 10 7 15 15 24 19 21 4 -4 7 -2 7 4 0 6 7 18 16 26 14 15
14 17 -1 22 -28 11 12 44 52 44 45 0 69 -14 88 -50 23 -45 19 -94 -11 -129
-14 -17 -22 -31 -17 -31 15 0 73 39 73 50 0 5 6 7 14 4 18 -7 40 57 30 88 -7
23 -6 23 15 4 21 -19 21 -19 21 13 0 21 -9 41 -25 57 -28 28 -32 39 -10 30 8
-3 15 -1 15 5 0 18 -51 57 -88 67 l-37 10 41 1 c75 2 124 -58 124 -152 0 -118
-91 -185 -310 -228 -60 -12 -70 -17 -129 -78 -36 -35 -61 -59 -57 -53 15 25
-26 11 -56 -18 -38 -39 -31 -47 16 -21 20 12 36 16 36 11 0 -6 8 -10 17 -10
15 0 15 -1 1 -12 -26 -20 -58 -81 -58 -108 0 -20 2 -22 11 -10 8 11 9 1 5 -36
-7 -57 -1 -84 19 -84 7 0 16 -7 19 -15 8 -22 67 -45 113 -45 48 0 87 24 155
94 30 31 53 56 51 56 -2 0 -34 -20 -71 -45 -80 -53 -125 -64 -169 -41 -70 36
-111 123 -82 175 22 38 43 37 54 -1 16 -52 53 -50 100 4 31 35 37 39 32 19 -5
-21 -3 -20 24 10 l30 34 -6 -28 c-5 -27 -4 -27 17 -16 13 6 40 27 60 47 l37
35 6 -26 c4 -15 2 -40 -3 -57 -6 -16 -7 -30 -2 -30 16 0 81 85 108 142 15 31
30 57 35 57 11 1 9 -134 -3 -165 -16 -42 -1 -42 36 0 65 75 93 215 64 315 -5
19 -8 37 -6 39 9 8 63 -31 79 -57 14 -23 16 -23 17 -6 0 39 -27 132 -51 176
-14 26 -38 51 -57 60 -38 20 -28 33 34 47 l39 9 -40 19 c-29 13 -70 19 -146
22 l-106 4 4 46 c3 26 12 61 20 78 11 20 13 38 8 50 -8 18 -9 18 -12 -2 -2
-12 -13 -30 -24 -40 -12 -10 -19 -30 -19 -51 0 -21 -6 -36 -15 -39 -8 -4 -15
-12 -15 -18 0 -15 -42 -56 -57 -56 -15 0 -43 -45 -43 -69 0 -21 -36 -48 -48
-36 -3 3 0 15 7 26 18 30 9 33 -35 8 -53 -29 -22 -2 119 102 38 28 34 43 -5
19 -18 -11 -40 -20 -49 -20 -8 0 -26 -11 -39 -25 -14 -15 -35 -25 -51 -25 -14
0 -32 -7 -39 -15 -20 -24 -30 -18 -30 17 0 24 10 41 40 69 33 31 39 43 35 62
-5 18 -1 29 15 40 11 8 20 21 18 28 -2 8 7 15 22 17 14 2 45 12 69 23 24 11
52 21 62 22 11 1 19 5 19 9 0 12 -101 4 -112 -10z m-124 -429 c-26 -19 -31 2
-8 29 18 19 19 19 23 2 2 -10 -5 -24 -15 -31z m336 -208 c0 -10 -80 -44 -141
-60 -35 -9 -79 -25 -97 -36 -32 -18 -32 -18 -22 1 15 28 58 48 141 65 39 8 78
19 88 25 18 10 31 13 31 5z"/>
<path d="M870 1430 c-12 -8 -11 -10 7 -10 12 0 25 5 28 10 8 13 -15 13 -35 0z"/>
<path d="M793 1298 c-37 -40 -53 -69 -53 -99 0 -22 0 -22 21 -3 54 47 99 134
71 134 -4 0 -22 -15 -39 -32z"/>
<path d="M792 1204 c-27 -19 -52 -65 -52 -96 1 -27 29 -82 30 -57 0 9 13 41
30 72 21 39 27 62 22 77 -7 19 -9 19 -30 4z"/>
<path d="M1246 1192 c-7 -12 4 -52 15 -52 12 0 31 39 24 50 -8 12 -32 13 -39
2z"/>
<path d="M1300 1174 c0 -33 33 -30 38 4 3 17 -2 22 -17 22 -16 0 -21 -6 -21
-26z"/>
<path d="M1360 1170 c0 -5 7 -10 16 -10 8 0 12 5 9 10 -3 6 -10 10 -16 10 -5
0 -9 -4 -9 -10z"/>
<path d="M1195 1160 c-10 -16 16 -43 28 -31 11 11 2 41 -12 41 -5 0 -13 -5
-16 -10z"/>
<path d="M1350 1146 c-120 -26 -194 -83 -225 -175 -32 -94 -14 -139 87 -213
88 -66 99 -79 109 -126 6 -33 7 -30 7 23 1 69 -7 87 -65 139 -52 46 -61 81
-34 133 26 52 62 68 101 48 47 -24 53 -96 10 -110 -29 -9 -40 2 -40 41 0 29
-3 34 -23 34 -33 0 -47 -18 -47 -61 0 -45 24 -76 68 -89 29 -8 37 -5 66 21 41
35 60 38 51 7 -6 -23 -6 -23 15 2 15 17 21 34 18 57 -5 42 4 42 36 1 l26 -33
0 42 c0 50 -14 90 -43 122 l-22 23 40 -4 c22 -3 49 -9 59 -13 19 -8 19 -7 -2
22 -24 34 -74 61 -128 70 l-35 6 22 23 c25 27 25 27 -51 10z"/>
<path d="M812 1095 c-17 -36 -15 -86 4 -113 8 -12 18 -22 22 -22 11 0 7 124
-5 144 -8 15 -11 14 -21 -9z"/>
<path d="M1157 1114 c-9 -10 2 -24 19 -24 8 0 14 7 14 15 0 15 -21 21 -33 9z"/>
<path d="M1115 1080 c-8 -13 3 -30 20 -30 20 0 30 21 14 31 -18 11 -26 11 -34
-1z"/>
<path d="M866 1044 c-12 -32 -5 -66 19 -90 14 -14 29 -23 34 -20 10 7 3 82
-11 109 -11 21 -34 22 -42 1z"/>
<path d="M1074 1045 c-18 -13 -18 -15 -2 -31 18 -18 48 -13 48 9 0 26 -25 38
-46 22z"/>
<path d="M930 1005 c0 -45 75 -98 94 -66 6 10 -68 91 -84 91 -5 0 -10 -11 -10
-25z"/>
<path d="M995 1020 c-8 -12 10 -37 37 -51 12 -7 25 -6 39 2 22 11 21 11 -7 35
-31 25 -59 31 -69 14z"/>
<path d="M1288 639 c-4 -15 -35 -56 -67 -92 -36 -39 -64 -81 -70 -104 -16 -55
-13 -75 4 -28 8 22 24 47 37 55 79 52 112 102 106 161 -3 33 -3 33 -10 8z"/>
<path d="M1115 436 c-39 -59 -46 -157 -16 -222 21 -47 41 -65 41 -37 0 14 6
10 26 -15 33 -42 93 -72 143 -72 64 0 77 10 39 29 -39 19 -58 53 -58 105 0 31
3 36 13 27 18 -15 27 -4 27 33 0 45 -24 74 -86 101 -30 13 -54 29 -54 35 0 6
-4 8 -10 5 -17 -10 -11 -37 12 -62 13 -14 17 -23 9 -23 -9 0 -10 -4 -4 -12 6
-7 13 -33 17 -58 l6 -45 -25 28 c-14 15 -25 37 -25 48 0 16 -4 19 -21 14 -21
-7 -21 -5 -17 69 2 42 2 76 1 76 -1 0 -10 -11 -18 -24z"/>
</g>
</svg>
